<svg xmlns="http://www.w3.org/2000/svg" width="28.056" height="27.998" viewBox="0 0 28.056 27.998">
  <g id="icons_Q2" data-name="icons Q2" transform="translate(-9.959 -10.001)">
    <path id="Path_140" data-name="Path 140" d="M33.2,24,22.6,34.6a1.9,1.9,0,0,0,.2,3,2.1,2.1,0,0,0,2.7-.2l11.9-12a1.9,1.9,0,0,0,0-2.8l-11.9-12a2.1,2.1,0,0,0-2.7-.2,1.9,1.9,0,0,0-.2,3Z" fill="#e5e7f0"/>
    <path id="Path_141" data-name="Path 141" d="M21.2,24,10.6,34.6a1.9,1.9,0,0,0,.2,3,2.1,2.1,0,0,0,2.7-.2l11.9-12a1.9,1.9,0,0,0,0-2.8l-11.9-12a2.1,2.1,0,0,0-2.7-.2,1.9,1.9,0,0,0-.2,3Z" fill="#e5e7f0"/>
  </g>
</svg>
