<svg xmlns="http://www.w3.org/2000/svg" width="48" height="48" viewBox="0 0 48 48">
  <g id="Layer_2" data-name="Layer 2" transform="translate(48) rotate(90)">
    <g id="invisible_box" data-name="invisible box">
      <rect id="Rectangle_54" data-name="Rectangle 54" width="48" height="48" fill="none"/>
      <rect id="Rectangle_55" data-name="Rectangle 55" width="48" height="48" fill="none"/>
    </g>
    <g id="icons_Q2" data-name="icons Q2">
      <path id="Path_140" data-name="Path 140" d="M33.2,24,22.6,34.6a1.9,1.9,0,0,0,.2,3,2.1,2.1,0,0,0,2.7-.2l11.9-12a1.9,1.9,0,0,0,0-2.8l-11.9-12a2.1,2.1,0,0,0-2.7-.2,1.9,1.9,0,0,0-.2,3Z" fill="#e5e7f0"/>
      <path id="Path_141" data-name="Path 141" d="M21.2,24,10.6,34.6a1.9,1.9,0,0,0,.2,3,2.1,2.1,0,0,0,2.7-.2l11.9-12a1.9,1.9,0,0,0,0-2.8l-11.9-12a2.1,2.1,0,0,0-2.7-.2,1.9,1.9,0,0,0-.2,3Z" fill="#e5e7f0"/>
    </g>
  </g>
</svg>
