<svg xmlns="http://www.w3.org/2000/svg" width="16" height="14.08" viewBox="0 0 16 14.08">
  <path id="FontAwsome_user-lock_" data-name="FontAwsome (user-lock)" d="M5.6,7.04A3.371,3.371,0,0,0,8.8,3.52,3.371,3.371,0,0,0,5.6,0,3.371,3.371,0,0,0,2.4,3.52,3.371,3.371,0,0,0,5.6,7.04ZM8,8.8a1.871,1.871,0,0,1,.2-.839A3.121,3.121,0,0,0,7.84,7.92H7.422a4,4,0,0,1-3.645,0H3.36A3.541,3.541,0,0,0,0,11.615V12.76a1.264,1.264,0,0,0,1.2,1.32H8.222A1.881,1.881,0,0,1,8,13.2Zm7.2-.88h-.8V5.72a2.107,2.107,0,0,0-2-2.2,2.107,2.107,0,0,0-2,2.2v2.2H9.6a.843.843,0,0,0-.8.88v4.4a.843.843,0,0,0,.8.88h5.6a.843.843,0,0,0,.8-.88V8.8A.843.843,0,0,0,15.2,7.92Zm-2.8,3.96a.884.884,0,1,1,.8-.88A.843.843,0,0,1,12.4,11.88Zm.8-3.96H11.6V5.72a.8.8,0,1,1,1.6,0Z" fill="#fff"/>
</svg>
